<?xml version="1.0" standalone="no"?><!DOCTYPE svg PUBLIC "-//W3C//DTD SVG 1.1//EN" "http://www.w3.org/Graphics/SVG/1.1/DTD/svg11.dtd"><svg t="1575704981924" class="icon" viewBox="0 0 1024 1024" version="1.1" xmlns="http://www.w3.org/2000/svg" p-id="18110" xmlns:xlink="http://www.w3.org/1999/xlink" width="200" height="200"><defs><style type="text/css"></style></defs><path d="M100.4 218.1h673.3c17.9 0 32.4 14.5 32.4 32.4v3.3h117.4c10.1 0 19.3 4.1 26 10.7l1.3 1.5c5.9 6.5 9.5 15.1 9.5 24.6v478.5c0 10.1-4.1 19.3-10.8 26-6.6 6.6-15.8 10.8-26 10.8h-243c-10.1 0-19.3-4.1-26-10.8-6.7-6.6-10.8-15.8-10.8-26v-35.3H533.4v35.4h51.2c10.1 0 18.4 8.2 18.4 18.4 0 10.1-8.2 18.4-18.4 18.4H285.3c-10.2 0-18.4-8.2-18.4-18.4s8.2-18.4 18.4-18.4h51.2v-35.4h-236c-10.2 0-19.4-4.2-26.1-11.1-6.6-6.7-10.6-16-10.6-26.1V255.3c0-10.1 4.1-19.4 10.6-26.1 6.6-6.9 15.8-11.1 26-11.1z" fill="#686868" p-id="18111"></path><path d="M806.2 378.2h72.7c10.1 0 18.3 8.2 18.3 18.4S889 415 878.9 415h-72.7v281.6c0 10.2-4.1 19.4-10.6 26.1-6.7 6.9-16 11.1-26.1 11.1h-88.8v35.3c20.6 0 243 0.1 243 0V290.6H806.2" fill="#F2F2F2" p-id="18112"></path><path d="M878.9 691.4c10.1 0 18.3 8.2 18.3 18.4 0 10.1-8.2 18.3-18.3 18.3h-3.3c-10.1 0-18.3-8.2-18.3-18.3 0-10.2 8.2-18.4 18.3-18.4h3.3zM878.9 631.5c10.1 0 18.3 8.2 18.3 18.3s-8.2 18.4-18.3 18.4h-3.3c-10.1 0-18.3-8.2-18.3-18.4s8.2-18.3 18.3-18.3h3.3z" fill="#686868" p-id="18113"></path><path d="M373.2 733.8h123.5v35.4H373.2z" fill="#B2B2B2" p-id="18114"></path><path d="M100.4 624.6h669V255.3c0-0.2 0-0.4-0.1-0.5H100.5c0 0.1-0.1 0.3-0.1 0.5v369.3z" fill="#FFDE79" p-id="18115"></path><path d="M100.4 661.4v35.2c0 0.2 0 0.4 0.1 0.5h668.8c0-0.1 0.1-0.3 0.1-0.5v-35.2" fill="#F2F2F2" p-id="18116"></path></svg>